<svg width="18" height="18" viewBox="0 0 18 18" fill="none" xmlns="http://www.w3.org/2000/svg">
<path d="M8.99997 6.6785C7.71788 6.6785 6.67854 7.71784 6.67854 8.99993C6.67854 10.282 7.71788 11.3214 8.99997 11.3214C10.2821 11.3214 11.3214 10.282 11.3214 8.99993C11.3214 7.71784 10.2821 6.6785 8.99997 6.6785Z" fill="#002E27"/>
<path fill-rule="evenodd" clip-rule="evenodd" d="M5.26393 2.62955C7.72687 2.35428 10.2731 2.35428 12.736 2.62955C14.092 2.7811 15.1857 3.84951 15.3449 5.21027C15.6394 7.72813 15.6394 10.2717 15.3449 12.7896C15.1857 14.1503 14.092 15.2188 12.736 15.3703C10.2731 15.6456 7.72687 15.6456 5.26393 15.3703C3.90793 15.2188 2.81422 14.1503 2.65507 12.7896C2.36058 10.2717 2.36058 7.72813 2.65507 5.21027C2.81422 3.84951 3.90793 2.7811 5.26393 2.62955ZM12.5714 4.71421C12.1769 4.71421 11.8571 5.03401 11.8571 5.4285C11.8571 5.82299 12.1769 6.14279 12.5714 6.14279C12.9659 6.14279 13.2857 5.82299 13.2857 5.4285C13.2857 5.03401 12.9659 4.71421 12.5714 4.71421ZM5.60712 8.99993C5.60712 7.1261 7.12615 5.60707 8.99997 5.60707C10.8738 5.60707 12.3928 7.1261 12.3928 8.99993C12.3928 10.8738 10.8738 12.3928 8.99997 12.3928C7.12615 12.3928 5.60712 10.8738 5.60712 8.99993Z" fill="#002E27"/>
</svg>
