<svg width="16" height="12" viewBox="0 0 16 12" fill="none" xmlns="http://www.w3.org/2000/svg">
<path fill-rule="evenodd" clip-rule="evenodd" d="M4.42058 0.921786C6.8032 0.735381 9.19674 0.735381 11.5794 0.921786L13.1799 1.047C14.0713 1.11675 14.8006 1.78489 14.948 2.66687C15.3167 4.87365 15.3167 7.12632 14.948 9.33311C14.8006 10.2151 14.0713 10.8832 13.1799 10.953L11.5794 11.0782C9.19674 11.2646 6.8032 11.2646 4.42058 11.0782L2.82008 10.953C1.9286 10.8832 1.19929 10.2151 1.05193 9.33311C0.683211 7.12632 0.683211 4.87365 1.05193 2.66687C1.19929 1.78489 1.9286 1.11675 2.82008 1.047L4.42058 0.921786ZM6.57138 7.76437V4.2356C6.57138 4.06904 6.75308 3.96615 6.89591 4.05185L9.83656 5.81624C9.97527 5.89947 9.97527 6.10051 9.83656 6.18374L6.89591 7.94812C6.75308 8.03382 6.57138 7.93094 6.57138 7.76437Z" fill="#002E27"/>
</svg>
